<svg xmlns="http://www.w3.org/2000/svg" viewBox="0 0 62 62"><defs><style>.cls-1{fill:#9bacc4;}</style></defs><g id="Layer_2" data-name="Layer 2"><g id="Layer_1-2" data-name="Layer 1"><path class="cls-1" d="M59.37,25.29a34.82,34.82,0,0,1-7.59-9.19l-.53-.93.46-.46a1,1,0,0,0,0-1.42l-3-3a1,1,0,0,0-1.42,0l-.46.46-.93-.53a34.82,34.82,0,0,1-9.19-7.59,7.51,7.51,0,0,0-11.42,0,34.82,34.82,0,0,1-9.19,7.59l-.93.53-.46-.46a1,1,0,0,0-1.42,0l-3,3a1,1,0,0,0,0,1.42l.46.46-.53.93a34.82,34.82,0,0,1-7.59,9.19,7.51,7.51,0,0,0,0,11.42,34.82,34.82,0,0,1,7.59,9.19l.53.93-.46.46a1,1,0,0,0,0,1.42l3,3a1,1,0,0,0,1.42,0l.46-.46.93.53a34.82,34.82,0,0,1,9.19,7.59,7.51,7.51,0,0,0,11.42,0,34.82,34.82,0,0,1,9.19-7.59l.93-.53.46.46a1,1,0,0,0,1.42,0l3-3a1,1,0,0,0,0-1.42l-.46-.46.53-.93a34.82,34.82,0,0,1,7.59-9.19,7.51,7.51,0,0,0,0-11.42ZM38.51,50.59l-3-7.42a13.06,13.06,0,0,0,7.63-7.63l7.42,3A21.08,21.08,0,0,1,38.51,50.59ZM11.41,38.51l7.42-3a13.06,13.06,0,0,0,7.63,7.63l-3,7.42A21.11,21.11,0,0,1,11.41,38.51Zm12.08-27.1,3,7.42a13,13,0,0,0-7.62,7.63l-7.43-3A21.13,21.13,0,0,1,23.49,11.41ZM42,31A11,11,0,1,1,31,20,11,11,0,0,1,42,31ZM31,18a13.3,13.3,0,0,0-2.62.26l-3-7.48a20.56,20.56,0,0,1,11.22,0l-3,7.48A13.3,13.3,0,0,0,31,18ZM10,31a21.23,21.23,0,0,1,.78-5.61l7.48,3a13.33,13.33,0,0,0,0,5.24l-7.48,3A21.23,21.23,0,0,1,10,31ZM28.38,43.74a13.33,13.33,0,0,0,5.24,0l3,7.48a20.56,20.56,0,0,1-11.22,0ZM52,31a21.23,21.23,0,0,1-.78,5.61l-7.48-3a13.33,13.33,0,0,0,0-5.24l7.48-3A21.23,21.23,0,0,1,52,31Zm-8.83-4.54a13,13,0,0,0-7.63-7.62l3-7.43A21.11,21.11,0,0,1,50.59,23.49ZM49.59,14,48,15.56A19.88,19.88,0,0,0,46.44,14L48,12.41ZM17.1,12a36.75,36.75,0,0,0,9.71-8,5.51,5.51,0,0,1,8.38,0,36.75,36.75,0,0,0,9.71,8l.47.27-.47.47a22.94,22.94,0,0,0-27.8,0l-.47-.47Zm-3.1.46L15.56,14A19.88,19.88,0,0,0,14,15.56L12.41,14ZM12,44.9a36.75,36.75,0,0,0-8-9.71,5.51,5.51,0,0,1,0-8.38,36.75,36.75,0,0,0,8-9.71l.27-.47.47.47a22.94,22.94,0,0,0,0,27.8l-.47.47Zm.46,3.1L14,46.44A19.88,19.88,0,0,0,15.56,48L14,49.59Zm32.49,2a36.75,36.75,0,0,0-9.71,8,5.51,5.51,0,0,1-8.38,0,36.75,36.75,0,0,0-9.71-8l-.47-.27.47-.47a22.94,22.94,0,0,0,27.8,0l.47.47Zm3.1-.46L46.44,48A19.88,19.88,0,0,0,48,46.44L49.59,48Zm10.07-14.4a36.75,36.75,0,0,0-8,9.71l-.27.47-.47-.47a22.94,22.94,0,0,0,0-27.8l.47-.47.27.47a36.75,36.75,0,0,0,8,9.71,5.51,5.51,0,0,1,0,8.38Z"/></g></g></svg>